<?xml version='1.0' encoding='UTF-8'?>
<svg width="41mm" height="41mm" version="1.1" viewBox="0 0 41 41" xmlns="http://www.w3.org/2000/svg"><path d="M4,4H5V5H4zM5,4H6V5H5zM6,4H7V5H6zM7,4H8V5H7zM8,4H9V5H8zM9,4H10V5H9zM10,4H11V5H10zM13,4H14V5H13zM15,4H16V5H15zM16,4H17V5H16zM17,4H18V5H17zM20,4H21V5H20zM22,4H23V5H22zM24,4H25V5H24zM25,4H26V5H25zM26,4H27V5H26zM28,4H29V5H28zM30,4H31V5H30zM31,4H32V5H31zM32,4H33V5H32zM33,4H34V5H33zM34,4H35V5H34zM35,4H36V5H35zM36,4H37V5H36zM4,5H5V6H4zM10,5H11V6H10zM13,5H14V6H13zM14,5H15V6H14zM15,5H16V6H15zM17,5H18V6H17zM20,5H21V6H20zM21,5H22V6H21zM24,5H25V6H24zM26,5H27V6H26zM28,5H29V6H28zM30,5H31V6H30zM36,5H37V6H36zM4,6H5V7H4zM6,6H7V7H6zM7,6H8V7H7zM8,6H9V7H8zM10,6H11V7H10zM12,6H13V7H12zM14,6H15V7H14zM16,6H17V7H16zM20,6H21V7H20zM21,6H22V7H21zM22,6H23V7H22zM23,6H24V7H23zM24,6H25V7H24zM25,6H26V7H25zM26,6H27V7H26zM27,6H28V7H27zM28,6H29V7H28zM30,6H31V7H30zM32,6H33V7H32zM33,6H34V7H33zM34,6H35V7H34zM36,6H37V7H36zM4,7H5V8H4zM6,7H7V8H6zM7,7H8V8H7zM8,7H9V8H8zM10,7H11V8H10zM12,7H13V8H12zM14,7H15V8H14zM17,7H18V8H17zM19,7H20V8H19zM21,7H22V8H21zM22,7H23V8H22zM23,7H24V8H23zM24,7H25V8H24zM25,7H26V8H25zM27,7H28V8H27zM28,7H29V8H28zM30,7H31V8H30zM32,7H33V8H32zM33,7H34V8H33zM34,7H35V8H34zM36,7H37V8H36zM4,8H5V9H4zM6,8H7V9H6zM7,8H8V9H7zM8,8H9V9H8zM10,8H11V9H10zM14,8H15V9H14zM15,8H16V9H15zM16,8H17V9H16zM18,8H19V9H18zM20,8H21V9H20zM22,8H23V9H22zM24,8H25V9H24zM25,8H26V9H25zM30,8H31V9H30zM32,8H33V9H32zM33,8H34V9H33zM34,8H35V9H34zM36,8H37V9H36zM4,9H5V10H4zM10,9H11V10H10zM13,9H14V10H13zM15,9H16V10H15zM19,9H20V10H19zM22,9H23V10H22zM24,9H25V10H24zM25,9H26V10H25zM26,9H27V10H26zM27,9H28V10H27zM30,9H31V10H30zM36,9H37V10H36zM4,10H5V11H4zM5,10H6V11H5zM6,10H7V11H6zM7,10H8V11H7zM8,10H9V11H8zM9,10H10V11H9zM10,10H11V11H10zM12,10H13V11H12zM14,10H15V11H14zM16,10H17V11H16zM18,10H19V11H18zM20,10H21V11H20zM22,10H23V11H22zM24,10H25V11H24zM26,10H27V11H26zM28,10H29V11H28zM30,10H31V11H30zM31,10H32V11H31zM32,10H33V11H32zM33,10H34V11H33zM34,10H35V11H34zM35,10H36V11H35zM36,10H37V11H36zM15,11H16V12H15zM20,11H21V12H20zM21,11H22V12H21zM24,11H25V12H24zM27,11H28V12H27zM7,12H8V13H7zM8,12H9V13H8zM10,12H11V13H10zM11,12H12V13H11zM16,12H17V13H16zM17,12H18V13H17zM19,12H20V13H19zM20,12H21V13H20zM22,12H23V13H22zM24,12H25V13H24zM27,12H28V13H27zM33,12H34V13H33zM34,12H35V13H34zM4,13H5V14H4zM5,13H6V14H5zM6,13H7V14H6zM8,13H9V14H8zM11,13H12V14H11zM17,13H18V14H17zM18,13H19V14H18zM19,13H20V14H19zM20,13H21V14H20zM22,13H23V14H22zM23,13H24V14H23zM25,13H26V14H25zM26,13H27V14H26zM27,13H28V14H27zM29,13H30V14H29zM31,13H32V14H31zM32,13H33V14H32zM33,13H34V14H33zM34,13H35V14H34zM35,13H36V14H35zM4,14H5V15H4zM7,14H8V15H7zM8,14H9V15H8zM10,14H11V15H10zM12,14H13V15H12zM15,14H16V15H15zM17,14H18V15H17zM18,14H19V15H18zM22,14H23V15H22zM24,14H25V15H24zM25,14H26V15H25zM26,14H27V15H26zM27,14H28V15H27zM28,14H29V15H28zM29,14H30V15H29zM31,14H32V15H31zM34,14H35V15H34zM35,14H36V15H35zM36,14H37V15H36zM5,15H6V16H5zM7,15H8V16H7zM9,15H10V16H9zM11,15H12V16H11zM13,15H14V16H13zM14,15H15V16H14zM15,15H16V16H15zM16,15H17V16H16zM17,15H18V16H17zM18,15H19V16H18zM21,15H22V16H21zM24,15H25V16H24zM29,15H30V16H29zM31,15H32V16H31zM32,15H33V16H32zM34,15H35V16H34zM35,15H36V16H35zM5,16H6V17H5zM9,16H10V17H9zM10,16H11V17H10zM11,16H12V17H11zM14,16H15V17H14zM19,16H20V17H19zM23,16H24V17H23zM24,16H25V17H24zM25,16H26V17H25zM26,16H27V17H26zM30,16H31V17H30zM31,16H32V17H31zM33,16H34V17H33zM35,16H36V17H35zM36,16H37V17H36zM6,17H7V18H6zM12,17H13V18H12zM15,17H16V18H15zM17,17H18V18H17zM18,17H19V18H18zM25,17H26V18H25zM27,17H28V18H27zM29,17H30V18H29zM33,17H34V18H33zM34,17H35V18H34zM35,17H36V18H35zM6,18H7V19H6zM7,18H8V19H7zM9,18H10V19H9zM10,18H11V19H10zM13,18H14V19H13zM14,18H15V19H14zM18,18H19V19H18zM19,18H20V19H19zM20,18H21V19H20zM22,18H23V19H22zM28,18H29V19H28zM30,18H31V19H30zM31,18H32V19H31zM34,18H35V19H34zM5,19H6V20H5zM6,19H7V20H6zM9,19H10V20H9zM11,19H12V20H11zM12,19H13V20H12zM15,19H16V20H15zM16,19H17V20H16zM19,19H20V20H19zM20,19H21V20H20zM21,19H22V20H21zM22,19H23V20H22zM23,19H24V20H23zM24,19H25V20H24zM28,19H29V20H28zM32,19H33V20H32zM33,19H34V20H33zM34,19H35V20H34zM35,19H36V20H35zM36,19H37V20H36zM4,20H5V21H4zM5,20H6V21H5zM7,20H8V21H7zM8,20H9V21H8zM10,20H11V21H10zM11,20H12V21H11zM12,20H13V21H12zM14,20H15V21H14zM15,20H16V21H15zM17,20H18V21H17zM20,20H21V21H20zM21,20H22V21H21zM22,20H23V21H22zM23,20H24V21H23zM24,20H25V21H24zM27,20H28V21H27zM29,20H30V21H29zM30,20H31V21H30zM31,20H32V21H31zM32,20H33V21H32zM33,20H34V21H33zM36,20H37V21H36zM7,21H8V22H7zM8,21H9V22H8zM9,21H10V22H9zM12,21H13V22H12zM14,21H15V22H14zM15,21H16V22H15zM18,21H19V22H18zM19,21H20V22H19zM22,21H23V22H22zM23,21H24V22H23zM25,21H26V22H25zM26,21H27V22H26zM28,21H29V22H28zM30,21H31V22H30zM32,21H33V22H32zM33,21H34V22H33zM36,21H37V22H36zM4,22H5V23H4zM5,22H6V23H5zM7,22H8V23H7zM8,22H9V23H8zM10,22H11V23H10zM13,22H14V23H13zM15,22H16V23H15zM16,22H17V23H16zM19,22H20V23H19zM20,22H21V23H20zM23,22H24V23H23zM25,22H26V23H25zM26,22H27V23H26zM27,22H28V23H27zM32,22H33V23H32zM33,22H34V23H33zM34,22H35V23H34zM36,22H37V23H36zM6,23H7V24H6zM7,23H8V24H7zM8,23H9V24H8zM9,23H10V24H9zM12,23H13V24H12zM13,23H14V24H13zM16,23H17V24H16zM18,23H19V24H18zM19,23H20V24H19zM26,23H27V24H26zM27,23H28V24H27zM28,23H29V24H28zM29,23H30V24H29zM31,23H32V24H31zM33,23H34V24H33zM34,23H35V24H34zM35,23H36V24H35zM4,24H5V25H4zM9,24H10V25H9zM10,24H11V25H10zM11,24H12V25H11zM12,24H13V25H12zM13,24H14V25H13zM14,24H15V25H14zM15,24H16V25H15zM19,24H20V25H19zM22,24H23V25H22zM28,24H29V25H28zM31,24H32V25H31zM33,24H34V25H33zM36,24H37V25H36zM4,25H5V26H4zM6,25H7V26H6zM7,25H8V26H7zM8,25H9V26H8zM13,25H14V26H13zM15,25H16V26H15zM17,25H18V26H17zM21,25H22V26H21zM22,25H23V26H22zM23,25H24V26H23zM24,25H25V26H24zM27,25H28V26H27zM32,25H33V26H32zM34,25H35V26H34zM35,25H36V26H35zM4,26H5V27H4zM10,26H11V27H10zM12,26H13V27H12zM16,26H17V27H16zM17,26H18V27H17zM21,26H22V27H21zM22,26H23V27H22zM23,26H24V27H23zM24,26H25V27H24zM25,26H26V27H25zM26,26H27V27H26zM27,26H28V27H27zM30,26H31V27H30zM35,26H36V27H35zM36,26H37V27H36zM4,27H5V28H4zM6,27H7V28H6zM7,27H8V28H7zM9,27H10V28H9zM12,27H13V28H12zM15,27H16V28H15zM16,27H17V28H16zM17,27H18V28H17zM20,27H21V28H20zM23,27H24V28H23zM24,27H25V28H24zM28,27H29V28H28zM31,27H32V28H31zM32,27H33V28H32zM34,27H35V28H34zM4,28H5V29H4zM5,28H6V29H5zM7,28H8V29H7zM8,28H9V29H8zM9,28H10V29H9zM10,28H11V29H10zM11,28H12V29H11zM15,28H16V29H15zM17,28H18V29H17zM18,28H19V29H18zM20,28H21V29H20zM23,28H24V29H23zM24,28H25V29H24zM27,28H28V29H27zM28,28H29V29H28zM29,28H30V29H29zM30,28H31V29H30zM31,28H32V29H31zM32,28H33V29H32zM33,28H34V29H33zM36,28H37V29H36zM12,29H13V30H12zM14,29H15V30H14zM16,29H17V30H16zM19,29H20V30H19zM20,29H21V30H20zM23,29H24V30H23zM24,29H25V30H24zM25,29H26V30H25zM28,29H29V30H28zM32,29H33V30H32zM33,29H34V30H33zM34,29H35V30H34zM35,29H36V30H35zM4,30H5V31H4zM5,30H6V31H5zM6,30H7V31H6zM7,30H8V31H7zM8,30H9V31H8zM9,30H10V31H9zM10,30H11V31H10zM12,30H13V31H12zM13,30H14V31H13zM14,30H15V31H14zM16,30H17V31H16zM18,30H19V31H18zM20,30H21V31H20zM22,30H23V31H22zM23,30H24V31H23zM27,30H28V31H27zM28,30H29V31H28zM30,30H31V31H30zM32,30H33V31H32zM34,30H35V31H34zM4,31H5V32H4zM10,31H11V32H10zM13,31H14V32H13zM15,31H16V32H15zM16,31H17V32H16zM17,31H18V32H17zM19,31H20V32H19zM20,31H21V32H20zM21,31H22V32H21zM23,31H24V32H23zM25,31H26V32H25zM26,31H27V32H26zM27,31H28V32H27zM28,31H29V32H28zM32,31H33V32H32zM33,31H34V32H33zM34,31H35V32H34zM35,31H36V32H35zM4,32H5V33H4zM6,32H7V33H6zM7,32H8V33H7zM8,32H9V33H8zM10,32H11V33H10zM12,32H13V33H12zM13,32H14V33H13zM15,32H16V33H15zM17,32H18V33H17zM21,32H22V33H21zM23,32H24V33H23zM25,32H26V33H25zM26,32H27V33H26zM27,32H28V33H27zM28,32H29V33H28zM29,32H30V33H29zM30,32H31V33H30zM31,32H32V33H31zM32,32H33V33H32zM33,32H34V33H33zM35,32H36V33H35zM4,33H5V34H4zM6,33H7V34H6zM7,33H8V34H7zM8,33H9V34H8zM10,33H11V34H10zM12,33H13V34H12zM14,33H15V34H14zM15,33H16V34H15zM18,33H19V34H18zM19,33H20V34H19zM20,33H21V34H20zM21,33H22V34H21zM23,33H24V34H23zM26,33H27V34H26zM29,33H30V34H29zM31,33H32V34H31zM34,33H35V34H34zM36,33H37V34H36zM4,34H5V35H4zM6,34H7V35H6zM7,34H8V35H7zM8,34H9V35H8zM10,34H11V35H10zM13,34H14V35H13zM15,34H16V35H15zM17,34H18V35H17zM20,34H21V35H20zM21,34H22V35H21zM22,34H23V35H22zM23,34H24V35H23zM24,34H25V35H24zM25,34H26V35H25zM32,34H33V35H32zM34,34H35V35H34zM35,34H36V35H35zM36,34H37V35H36zM4,35H5V36H4zM10,35H11V36H10zM14,35H15V36H14zM15,35H16V36H15zM19,35H20V36H19zM20,35H21V36H20zM21,35H22V36H21zM22,35H23V36H22zM25,35H26V36H25zM27,35H28V36H27zM29,35H30V36H29zM30,35H31V36H30zM33,35H34V36H33zM34,35H35V36H34zM35,35H36V36H35zM36,35H37V36H36zM4,36H5V37H4zM5,36H6V37H5zM6,36H7V37H6zM7,36H8V37H7zM8,36H9V37H8zM9,36H10V37H9zM10,36H11V37H10zM13,36H14V37H13zM14,36H15V37H14zM15,36H16V37H15zM17,36H18V37H17zM18,36H19V37H18zM20,36H21V37H20zM21,36H22V37H21zM23,36H24V37H23zM24,36H25V37H24zM26,36H27V37H26zM27,36H28V37H27zM28,36H29V37H28zM32,36H33V37H32zM33,36H34V37H33z" id="qr-path" fill="#000000" fill-opacity="1" fill-rule="nonzero" stroke="none" /></svg>